<mxfile host="app.diagrams.net" agent="Mozilla/5.0 (Macintosh; Intel Mac OS X 10_15_7) AppleWebKit/537.36 (KHTML, like Gecko) Chrome/134.0.0.0 Safari/537.36" version="26.1.1">

  <diagram name="ページ1" id="cNT6vRl9KMisfMaAIZAH">
    <mxGraphModel grid="1" page="1" gridSize="10" guides="1" tooltips="1" connect="1" arrows="1" fold="1" pageScale="1" pageWidth="827" pageHeight="1169" math="0" shadow="0">
      <root>
        <mxCell id="0" />
        <mxCell id="1" parent="0" />
        <mxCell id="WbmOMX9Wb3A79K1njuYa-22" value="" style="shape=image;verticalLabelPosition=bottom;labelBackgroundColor=default;verticalAlign=top;aspect=fixed;imageAspect=0;image=https://www.to-r.net/media/images/2021/12/1230.png;" vertex="1" parent="1">
          <mxGeometry x="-60" y="170" width="180" height="94.5" as="geometry" />
        </mxCell>
        <mxCell id="WbmOMX9Wb3A79K1njuYa-29" value="" style="rounded=0;whiteSpace=wrap;html=1;fillColor=none;" vertex="1" parent="1">
          <mxGeometry x="10" y="250" width="140" height="130" as="geometry" />
        </mxCell>
        <mxCell id="WbmOMX9Wb3A79K1njuYa-38" value="" style="rounded=0;whiteSpace=wrap;html=1;fillColor=none;" vertex="1" parent="1">
          <mxGeometry x="10" y="-70" width="280" height="170" as="geometry" />
        </mxCell>
        <mxCell id="WbmOMX9Wb3A79K1njuYa-49" value="" style="rounded=0;whiteSpace=wrap;html=1;fillColor=#d5e8d4;strokeColor=#82b366;" vertex="1" parent="1">
          <mxGeometry x="322.36" y="255.62" width="417.64" height="225" as="geometry" />
        </mxCell>
        <mxCell id="WbmOMX9Wb3A79K1njuYa-15" value="" style="rounded=0;whiteSpace=wrap;html=1;fillColor=none;" vertex="1" parent="1">
          <mxGeometry x="318.68" y="100" width="431.32" height="390" as="geometry" />
        </mxCell>
        <mxCell id="WbmOMX9Wb3A79K1njuYa-11" value="" style="rounded=0;whiteSpace=wrap;html=1;fillColor=none;" vertex="1" parent="1">
          <mxGeometry x="360" y="280" width="226" height="190" as="geometry" />
        </mxCell>
        <mxCell id="WbmOMX9Wb3A79K1njuYa-8" value="" style="shape=image;verticalLabelPosition=bottom;labelBackgroundColor=default;verticalAlign=top;aspect=fixed;imageAspect=0;image=data:image/png,iVBORw0KGgoAAAANSUhEUgAAAMMAAABVCAYAAAD0QFD0AAABZmlDQ1BJQ0MgUHJvZmlsZQAAKJF1kb9LQlEUxz+aEJZL9IugwNHBSi0tiQa1kqJB1MjanvZ4RWq354toafGfibagJQKHJpemoCnaGtqEoNXOVcR+0Dmcez73ew/3HO4Fd9BQquwJQaXq2Nl00l/Y2/cPvjOAl3GmCBilmkpkMtuI9fJP+3zGpfPTrL5r5uq6qO4ekhO7l/XTvFH6W//DvAdmTde0JJySsh1wHQhnzh2l+VZ4zJahhJuarS6/aC52udWpyWdT4PYIB4rf2PrGlfJZbx49sc+s7uQkFySmSXMiblHGZJ4cxxxhCIVYJ84yC5IT4lGJMBFR4sRkFyJFkiVZl9gQZVnOwqx1WCr+6bnY6ZmSjooLbOllcYiDX25X4noKP5tUKTFHUDginSJE9f/8fve+Vn+F1Ua73b7va1sNuInB0F1fC6zAiA+aj8qwjY6kX8htJuFjXMa8htE3GK6LOqmPvwAZql18xSkwYwAAADhlWElmTU0AKgAAAAgAAYdpAAQAAAABAAAAGgAAAAAAAqACAAQAAAABAAAAw6ADAAQAAAABAAAAVQAAAAAkj+gUAAAUu0lEQVR4Ae1daXcU15l+u1u70C4kkACz2oAxZnXAKzZesR1n7EzGSSbx8Zl4lg9zzswfmA/zI+bMiScnPk4mdmy84hgbvOIh7CCzCwktSEJC+y71WvM8t7ta1aVukJG6VDq676FVVbeq7r311n3uu97CY4BEk+aA5oB4NQ80BzQHohzQYNAjQXMgxgENBj0UNAc0GPQY0BxI5ICWDIn80EfzmAMaDPP45etHT+SABkMiP/TRPOaABsM8fvn60RM5oMGQyA99NI85oMEwj1++fvREDmgwJPJDH81jDmgwzOOXrx89kQMaDIn80EfzmANzCwyRsBjjI/P4delHTycH5g4YIiEJdzWJv2a/RIZ708kTXfc85UDGnHhuAqGzScaPvieha2cl0nddcne9Kp7cgjnRfd3JucEB90sGIyLh3nYZP7JXgvXHxAiMSbCxBhLiMzHGBucGl3Uv5wQHXA8G2gjB2r9KsO6YSASL8vAzhvvEf/pT8X9/UIygf04wWnfS/RxwNxjCVI8aJXDxkAhXp1p+BETg3FcSbr3kfi7rHs4JDrgXDABCqKNe/Mc/lkh3qximVLBsjYFuAOJrMUb65wSzdSfdzQHXgoEeI//hdyV45bhSjTwxEFi3hp/2wxmoTPQw9bmb07p3rueAO8EQDkr4RqMCgvp4B9SjVNvIEOyHk/slcOaAMq5dz3HdQddywH1giMB71N2mBjiNZaskSHVsDPVCXfoGbteLrmW07pj7OeA6MNB1Grp6Gt6jE0oaUCLEfx6P8CNP8WPLuchApwTOfi2RwR73c1330JUccBUYjBDUo44GCTbUxOwE8IzSAQjw+Hzizc9FoC0b0oLliT9jnCA6I4HTn4vhH3Uls3Wn3M2B2QEDVCFjbHgSZ+guHTv0Z9gKJ5Ub1bQTBBLBk58jnqIF4i3IF8lE4BzBOIgIy9aQCNWls1CXms5PqlsXaA7cigPOp2PQZdp+VcItlyVr02PxlApKhdD1egkBCBj6UIcgEdB7w4ujPACBIMC+ZGWIpxRpGD2DkABBXhF7Rm49EunvUuqSr3K5eIsrYufSsxkZHZWmpma5ceNGvIEFCxbI8uV3SMXChfGyZDt9ff3S2NQk/f0TbuHS0lJZsWK5FBUWJrtFl6WZA46DITI6KGNfvCnhtitqZs/atBuDvSAaVT66T5VFhzfgQIkAtUggEcQXE2Isy84SKV4gRs+ASDAUY1HsLqhIwfoz4i2pkpwHXxRPDkCUJrrRcUPe/OP/yv79B+ItrFmzSv7ptX+QJ594PF6WbKeuvl7+679/K6dPQyWM0c4dP5J/+efXZNO9G80ivXWQA86CgS7Ttjo1+3NCH//mbQChSDI3PCAhgCNUdzr66DQSKB9yM8VTskA8mb5EllBaACRegCTSi/ykcExlil1lwN0aPHdIMqrXSOa6HYn3zuBRKByW0dExGRoaitc6PDwigQAl1s0pFArJ6Mhowr0joyPCck2zwwFHbYbI6JCMH/5Azf7U9ykl/Kc+lzB0fP+Rj+PlyhbI8CkbQUmBZLyBpPAsgEG9IC96VtkPABG3MLojfTckcP67pLZJsup0meaAc2Cgp6ilVkK1p9RgFRjREkRZ80UZ/+otSAtIhdhApm3gKcpTg/2mr4iAKYYaRFWKwsS8H1tjfBRxh8sSajh70yr0Sc0BkwOOqUlGYBxeolMYr1FXKQ1k9W8MOn7dGexGjz0EAlyo3uKprVXwwLPkhf0QgWpijAeV0U1QEBuRXkiHM1+JbxGM6bIq85nn7HZkZESuX2+Xzq4uGR4eVupYZmam5OXlSXl5mVRXVUlBATxu3slz3CiM/fb2DqHRb1JxUZFUVFZIOBSWlpYW6YAjYBAqX2ZGpqhzFQuluhq2V06OeUvSbQQTW3dPj7S1XYdDYEDYT76B3JxcKYBDYXHVIllUWSlZWbD1XEzOgYH2QkdTNKIMp1DULIgCgCNYHeMdqjhCKbwp9BxNhWJGtrcoXyJjE/lJqj7mLtGYPv2F5D7x66nU5spr/P6AXLlyRY6fOCU135+VhsZG6e7ukbGxMTVQS4qL5Y47lsn69Wtlx4/ukw13rxd6tazUBhC98+5euVJXHy++b9s22f3YLrlw6bIcPPglztVJV1e3qnPRokpZtXKl7HrkIXnwgfulrKwUHu7J76S3t1f160xNjZy/cFHar3dIb1+fmvQKCwoUSNeuvUvu3XiPPHD/TqmqWiw+xIzcSI6AQblNmy5CMsQMZE7bJNvWk0G3aSG8RZnR81P9S08TpInkjiKDdXziLmJtEMb0+SOSedd2yVi2buLcHNnjTH7s2An501tvy9FjxzHrTszsfAQa712QFBzIB7/4Ug5vPSI/f/lnsmvXw1JaUhJ/yoGBAampOSsnT8XeAc74vD4lYb748iupv9oQv5ZSp7u7W86fvwDwfa9At+eZp6QIksRKrW1tsu+TT+Wtt99RUoESwkqDg4PCawjgT/d/Ls/ueVp+8fO/k7vuhGMDEs1t5AgYBAtwQlCFPNTpCQBOMPYtRLungAYxBvVtEAHkLS9S6pIE4JGx1E+J5D+6f86BIQxv1cmTp+W3r/9ODWIe34o42IeGoepAfdz92KNKhUp1z9WGRjmHAc/ZPRU1N19Tg3316lWyZfOm+Kw+ODgESfM+QPpn6YGKdCsiMAgaqlD//m//KsuWLk2qzt2qnnSedwQMRiggoda66JoEPg0HKsncch/GsLcEdsJkScyztyaqS3lI1aD90BFTl8z6kaoRbm/EQqEW8VUsvXVd07iCL/30mZpbznyXoJr03GQQsgutrW3yyV8+lTM134sVCAzorV69UkrLytTMXlt7BYG/TvgkojNzbW2dvPf+R7Js2TKlnqR6nGvXrqlTS5dU49qlSqdvvtai2g0EAvHbCJgLFy8J1R3aAKT/O3wYUuEvk4BwJ2b9lSuWK9DQRrl0uVZJFnUT/uz/7IBsvGeD/OxvX4J9MzW70Lw33VtHwCABSIb671M+C/OOPKWIJ+RM08Cid6kQXqjeoVh0eqLJ8I1rEjgJ22HPqxOFadijzv3RR/vk62++vWntNGgZhU5FdDRwlj9x8hQM5YmBySj1c889A5XjGVm8aJH0D/TLgQNfyvsffCTXYASbdOz4CQWiO9esltzc1NJ2/bq18uLfvCBbt2xWtsJFgPQPf/yT0v+tMY8WgGQEMRSCgbM71R4Oditt2HC3vPKrX8r2bVslAyovI+y/f+MPcuTosTgggvAgvrv3A3nk4YeUXZPMDrHW6eR+2sGgpELLFUgBc5q2PR6NMkSUvWWJ+qjtqikferIYqENEuz1RdDMQF2o4h0j3AFSxmWkrWac4g9OA5G86xAHHWZXeIyvt3HEfZtWfKr2b5YsXL5IS2AaUMh98+LGSFCwfHx+Xy7i/s7NLGdcss1N+fp4Cwk9fehH2AJwWIM7snZ2dcr0dXivca1IXbIgx1Em6CvuCaSh+/8T6cxrxf/+Ll+Xpp56IG+/0RNGz1QwJ1ACVTOWa4f5aOAMIFFMaqUpd8GeyD26mOxWEikSpgEBY0h/AQE9QPN1iuu1TOsD2ENgQ9vYivZ0TRvx020nz/T09vWpQciY1iS7UbZh1V61cYRapLd2W27ZuUZLCeoKD8Gaq2JLqauV5MoHAezl4OcOXQwWzEg33UKwvNLaHhhITLQmiLZAudi/Wfdu3C6WT3a1KcIyPT4DJ2tZs7addMqgHo1RIJRloODNwNpNE6VCQJ8ZoIrMjPR0SvHRCsrY8OpOtJdRFnzwH2cKF5Qnl9oM+JOi1tLQqlcN+jsdD8OjYPUcV8PtX4kcVxE50WZaWTniPeJ4+f6pjqYj3JNPbC5EomJWNQKaFOKubsp0A80P1tdKKFcuFksZOGZicaHwfOXo8QZIQ7CEEYt1Ek7k6072D2hDp64zO0va6CYR8MJ2z+AySh9IBxrT6iIClXq6ZDndfR6p3H1LBEweO5bJp7XJG3bPnKeWbv1lFZ8+ek3f2vo/4QV3Sy/xQSaxqCC9iNqt95jVvLiwonGQbEAiMUaQiBsWSuTgJNm+SmIJZD22HUDxBMlpaBlvGPvub15eXl0uWzZVKsIeZU+YiSjsY+F2j0NULySUDo830IM00sV6ueSDZJFKk54ZKCcna9nj0/Az/zcPsuGb1amVE3qxqqj83S9X2YUDag1O8J2gbhGYbQaijVo8TyzN8rGPmNeEM8NaDicxK47AfIikGN+2XsC0GQdevm4xnPkviE1mfbqb28bHgMNIiOEvbf1y046V+nw4isxGzsLdpDPUjc3YiwJSOpmeiznzYB3YvEI1Y6/oHaztMh6Bb10q0Bex1WM/f7j6N5SyoolZqh8HNQZ+M6Iny+xPP0ehPpu4lu9+psvSDgYqmaTMkbBFSgDqjVq2l4WkpGehmTda2TVikofXpV1lSUizFxVEPj1kbbQAar3ZPFdUpukTtrs6Kigqh/j/TVIUcKBrzVmIsgrlJVncsz7NPTAGxA4V2VSq1ylqvk/vpBwNiCL6SykmeHYxStWotbQ/L3CaqCDYvFrNZjf5Et2va+jCNiosx+65YvhyAKI7XQjXpm28OyeHDR+J+ew6+E4hSf3voO5UsF78YO2tguFYCEDNNa++6U2gjWBMC6Qz48ON90tLaGg/+MVXknb3vAcBXAZKJ6DltCBrV2Vyk5SJKu80gyH/xFMJN15XoL1eJeJi9004Eg4UMiHIa0G4nqhCbN29C1PdOOQpPjEnMQfr9G28KI9jl5WXKY8TA3IXzF+ODkNcycY8uUns+kVnPdLaVyHTdvn2bcLVeb+8ELw8c/EItdlq/fp0a6FSPDiBfihLNSo88/KArE/YcGI1gg6kqWTnCQWqZLaynZmSfuhDbsOlEnmykhxOcc4DWIf3hsUd3ybXmFhUEY5dpJDM94zJSMKiq0GPE7FUrsfyZp59SqRjpMKApEX78/B65gCzVvx45Gvd6cdAzfYSpGjTe+5EcaFebKBF+8sLzQrvDbZR2MHiyspExuhmJerZFNvi6hTGS6KueSeYYIdTPOINNMnjyi8RXvWomm0pbXYwBPP3kEzKMANd7H3yodHKzMQLADgKe4yB78snH5YXnnxXGJdJFq1etkld+/UsljY6fOJnQF7skMPvA3KZXX/mVWuPtNnuBfUw/GDATZ23dJWP73jB5Et1SWowHsCAnMP2cpMSao0fQr42BkcmSISMLXqaZMSrpGrT741k2FZchrpp0ndeDuIvNv79kSbVKauPAZr4T06EZsLJTYWGBrFu7Vq0/eHz3Y8IvdFh1enu9vJ8LqejRs1OyZ1Bllgt5fP/OHUKv1+cHVikJwSxYe2yEtyxFhurWLZtUqsZO3pM/w0FWS7+ms4usapseMZ3aUtzLFWeD//kbZI22JV4Bb5J3can41i5JLJ/uEfzdzFwNX0F7NlUsc91Wyf/H/xBf5fSzVwcGBpHQdkGakOZsUklxEVIc7lZ5N2ZZsi2zTM+eO69WrZnnmXi38R6kQsDAtBODVM3NzQjS1SuVaRBtBxBbYNBsQf4CiS7GWaEMU9oJ9sHP9QlUrzqRSGjSHchUvWfDhnhekllO9y0XEtGVa9ISeJA2bbp30rUcPu0dHVJf34D8owaV/sHIeQTqXC6AQvfuctgva9asVmnbyYJ8ZhuzvXUEDMbosJIMYx/+TpkPnIsoGNSclJMtGRuXz2hKhjGESPOlFniNEvNnvEVlkvP0y5L7k9/MNt9vu33aDHRT0lagh8aHCSUnOwf2Q+6s++0pFai6cRuBepoFb1EeMmaZomIH520zII03pl1NYt89CPtn3bdbAoc/w9e1W9XjxIUz0gUijR3iXb1Y5RNN91lpJ7A+ox8qks1e8JZUSMbaLdNtYlbvZ1SaaoYbVY1s5DPxN1cp/XEGcgbuVV/1Csl98TU4d6IeHm7VD7NbpGtAwnXtyGFKnMl/KFONMQCroQMqUr8YmEHNtrCDr22USebmhyRj6ZofWq2+fp5wwBkwgJmerBzJ3PSAZG3cqXQkLgHlon21FJSen85+iVxulXA94hEpclxSvhNcbwBIkaYbEmmHcQmARevGHdTH8PMtvkOyd72AxMA05EKl7Jg+MZc44IiaZDKEi2pyX4S+jsEZqDkcKyYisEtA9AyJB/o+F/V7K4qj305C9mlKolTpHRaDK9v47VW4ag18MiZaIVEQtU4IhJzdL2HJZ1XKqvQJzQFHDGgrm9WXMmrxxYX3/keCZw7je6r8wDA+NExJwS3Gr4dpFLlYz8xloJmIYPtQyK9wY30zLDORYUSRB5GnDzBQNVIuWn/ss4wc/yRiAeSrWia5L70m2TseR1p3dP1u9Iz+qzmQyAHHwcDmFSCunJWxva/j/1P4DqMfIxhgMGfySVucVynZuQAHjWKkMasvcKsBn/w+T04egn33StYjzwEIuzUQEt+7PkrCgVkBA/sRB8S7r0sQgFDjOtZBTu43O45dlnLjLSmX7Ed/LNkPP4t4whINhJSc0iesHJg1MLATBESkrVFCjbXi//YTCZyClLCiwNrTKex7cvPgOt0k2Q89g6WdD+IjA8iW1aQ5MEUOzCoYzD4aSJ2IXG+KguLrfQDFIfPUlLZUiTLWAQQPPKXA4Kusxmcq3Rnyn9ID6YtmhQOuAIP55AbSCyLt17BOGUGzoQEJnPgWtgGM5fZm5DBh6SC2glynDBjFlCCekjLJ3vmE+JaswMeHy+CBqtIgMJmptz+YA64Cg7X3ChhYr4ycZXiMEE1WWwTlvFjBlhed9ZkR612IyLWWAlbW6f3b5IBrwXCbz6Nv0xy4bQ44FoG+7R7qGzUHHOKABoNDjNbNuJ8DGgzuf0e6hw5xQIPBIUbrZtzPAQ0G978j3UOHOKDB4BCjdTPu54AGg/vfke6hQxzQYHCI0boZ93NAg8H970j30CEOaDA4xGjdjPs5oMHg/neke+gQBzQYHGK0bsb9HNBgcP870j10iAMaDA4xWjfjfg5oMLj/HekeOsQBDQaHGK2bcT8HNBjc/450Dx3igAaDQ4zWzbifAxoM7n9HuocOcUCDwSFG62bczwENBve/I91Dhzjw/2SWDL31txrDAAAAAElFTkSuQmCC;" vertex="1" parent="1">
          <mxGeometry x="400" y="290" width="114.71" height="50" as="geometry" />
        </mxCell>
        <mxCell id="WbmOMX9Wb3A79K1njuYa-9" value="" style="shape=image;verticalLabelPosition=bottom;labelBackgroundColor=default;verticalAlign=top;aspect=fixed;imageAspect=0;image=data:image/webp,UklGRjgjAABXRUJQVlA4WAoAAAAQAAAAHwMAogEAQUxQSJcYAAABsIdt/3op0fv5zgwxMCCNAoLdnavY3d2KK7ClLotdoLsoa/eG3br2BmAnJrKSNpiUgMDQw8z5vu8fM3Pm9/n9Bucc+eNExASg5P+S/0v+L/m/5P+S/0v+L/m/5P+S/0v+L/m/5P+S/0v+L/m/5P+S/0v+L/m/5P+S/0v+L/m/5P+S/0v+L/n/F9jWHP7CrVk0KysLZr9Ua9NprUxXtWvbugwNhxDMChqhzDkUKy6Y9e13Gf560kevj3r0lssGHLBDr1aoH4IVLoq1I0U1hzUzx/33tkE7dy4DEIIVIgxdLnzw3vsc733gyh6wosQIxchmUPVr5o6/+6xtWgMIVohYf5yiHKM+3wShKHG1SGWfZIxRkvj1U+esHwCzwkO/N1SXc6zThI2KWQ2TpKRVU2/p3xYWrODwpihHamIRrD5jlDT34QPawGyNBEmMpBbet1M5zNZMkBQjNWP42lhzQWJU7uV9A2yNBYnUzD+1ha25IEYtv707bM0FiYpP9kVYg0Gknu4HW4NBpB7pgbAGg6iaa9rB1mAQtfA3azYo6pNfIazJIOqZbrA1G5b+fs0GUe9vAluzofbKNRtEfbAh7JdaIxQjs5qqFUN+uTVSVEbJGEmmQ9SYnrBfaF00d8bMLM5esCyqPiNTMueQX2z13WP3TO51yHG/vuD2F6bVSIzp4MiAX2hl2jpucNi141aI9FPUi91hLb03FOkYNaFYYSGzZWUGAF1Pe61WkW7U9D1bfOuNVZRj1JRiRabNQjBDp9M+VhpWDW7x9Xl+wZwfHecseH294lODFgybP1knOom6sQ0sJWZmIW8zsxYA0HqL3Xdz3X3rNihWW0CPu3Ki23M9UmFWFpBoCPbzr6gf0OvfblETNvazEADAWlf12enAY08ZcPbvTjvx0P5b9qwsBwALZs2YNZgFazAtFpytmIWA3T4XvX7YBcHFggFotV7/wbf9d8JXM39avHxlrm7FkoVzvvvinYeGnbhLTwNg1hxZCAGNWghmqbEQgqFhCyGYX1HfUHGVRBdq/hEwBzMAVbv86dHxi6lE449v3nHWJhWAWfNiIaDhUF5maDgEMzezYGjQQlkwNGgh2C8WYNhmoqJT9ZlI3gxou+2QV2ZFSWKMMTLPGCMpSaumP3ZyHwDmYsG7CcEAhJ7b7nvahX+58a6/33D1xQMP2XGDSgAI5mHBAIQum/U/7tzh195x961/HX7OCbtv1d0AWHAx54YsjU7mXsCruF10WjHUkrIAVB7+yPeSFCOpJEnGKKnm/3/esRxmDqkOBnTYfci9b82uU565BZOevvLwbgBCcmZAq80H3/nyV8uU7/Jv3/jH77arBCw4FPcNJ1eLPqsuL4MlEgwdTvrfIlExUq6MUdKMu3YtQ7DEeh98+GGeR+zZsbFgqNhsyOtzo+qzUTW4ZNy1u1bCQjLBYBsMHv1dreqzUTVYN/OlP2wYYCEpK3cODVT16Nbdu2u5S1irR3fXbj06FPC2/FrRp+7P5YmYofWh/60RY6RSyEhq9jXrwiypMxaJSp6asiOsAUPY8fYZopiLJKmGScZcFPXTs0e1hiVghrDLzV9KUi6SpBomyZijpC9v3BqwZFqf/sTjrk/8vh3MsN1TH459x3Xsu2/9JiRn2Pbf7419x3HsB//ZGVaw6/OeF2+oSMIMW91TLUYqtTGKH5/VFsGSOX2h0+SGzND32pkSY6SSZIxU9e2bwqwpZtj05jkiY6SSZIyUpl/RG8GaZqi6S5Qj9XSnepXX1Ylypab3hyVk6PyEKEdKt1UV8Lo+K3pIvDEJQ9Ufp4mRSjWplfdsgCwZyo4dR0XKkZGadGIFLD9Dx6FfSTHKk1F670CDJdD+tpxrXXykEwyGHk8pF31zeq47LBFDxcUrlYuOOT3fE4aC3VqP+FC5q8ubZtjk0RpFKu0k9d6BMMtGgKHLiJ8USfkyasEV7WB5mGGbp1eJlDejfji7EpbAHXKlHq0Hwy6TFeVK1Y6oQKIBB3wjyjFqyvYwFPAe8lo1rKwpBjtsnEgqg4z67owyWCYsYJ27VykqhVFLr+0Aa8QMR04WSfkzavlNnWEZgdnARaKLqNmHwxIwbPCCKMeouaehgG/o8qTX8iGG/A2tB/2gSGWTUT9eUAnLQsDaj+QUlcqolSPawBowtP7t94pUOqNqbuoAywra3RidRL3UD9YkQ+UtpAdVc3VrWCGv54tei06H5WXo8OdqRSqzUUuvbA/LALrfkyOVUmrJhRWob2hz0WJFpZZaPqwVLBswrP+qoo+Uu74NrGmnLlCUy9PdEVDI6zte0WfuIfkZ1rphpaKyHLVseBtY2nZCu5vqRKWWmnEoDDDYwIWKSnHU3FMyA8M+00Ufau6paKphu49EOUb9fwcEFPR2nuET9c12CHkYOt6wSlHZjqr+bRYGLlZUiqNe7QuD4ehvFZXqqAnbIGQEsCHLRRdFjd8alpehy0OiBzX7ZBT2Db9eInpQ76wHa8zQZvgqUVmPmnEkLF1Tttv6U0WlmaodHhCw00RFpf6eKlhGDB3vVfQR+c8qWD4IFywTlTxVM7xVYc/Q5i5RPvetlYfBzpwvKvtRH28LS9XEfe8RlW5q+m5A98cVlXZq4QmZgWHz9xSdtHBwXob9vxPlGPVEV1iBb4+vFT0oDoWh0YAjvlNUc0g92RWWpv9fPTt1ou6sLLtwmZg6US/3gmUEAUfNEV1ETd4JoRFD75cU5Rj1wdYIKOQbKm8T5TP70DwM241TVDOxcgjyd5JmfkWlnvp8i62misrC4jOzA6sYtkp0EfVMN1gDhsobouhA/XAUDIV8CzhmtlPUG+s2Zuj0kMjmQVGf/wqWIlJZWHXNbcyEqOe6wTKDnk/5rTi/EeDkuaKSp2ouMhT0zfCrj0Q531CGRs2GLhflzobdRD3UCZaerP40T9mk5h+SHRi2n6DoIuqL/jAAhm3/r6jkST3YGVbACwbsO06UKzX3IFhDhh0+FeXMSDXISL+fjmv+MkvpmlawrMBw+jzRRdSotWEwdH5UlIfGbg5DYd4sBAO6X/iNorz+160RQ8cHRflGSlKsrc1REqOPqKe6wJo5MiOKeqt3ptpclyOdake0gsHOWeZCfXc4DAVcC1k1MwOA0G/gm6tE+VKLz4ShkZPmOlHinHfuu+I3xxz76wv/+c4cinSae1yzl11q9hEZgmG9MfIRNetQlGH/LxWVPLXs/ICCvXXc7tTbp+REym1Mj0YMvV4R5Ulx4p93rUSjVbsOmyDRQ9ST3WA/U8i/GCwzMOz1laKLol7bAP1GKSp5ivd0hBV01t9/v2weePzgS295fvz3NRIj5UxVD4ChkYFLfahZV60LABZCCAYAG965UPT58RCEbJCZIZkORT3VOUtA2R+Wii6ibuo8Mic6RL2xKQIKun9RXS6bVMO5SLlHPdaxEUOvlxTlGDXlYCAEQ6MWAspPni66xJvbwtLGmMvlyFiXI9MWc3U5MtblIlNAfbhlpgxV/xTpNPuJOaKSp749CAGF3atFKqNkjJFKYdSXuyKgkVOXiQ7UuB0RApoYDEdNF5NT1MRN08ZI5cmYqkjlSabhx4MRMgTDRm8purhT1WcHWMEnMptKb9Sis9GoocMDogM17SAYmm6GM34Sk6MWnpUyUpo9+oZLzvnthdc+83UUmRpSmvW/my4997dDRz7xZRTpVzMIliUYDp+h6EQ6ULyjAwwFH1LNOpW7oS2ssV2nKypxasUQGJI0tL0hypG6qwKWIopTL922Ixpst9ngD5UaSlOGbV+FBltvOuiNKLrl/lyBTAHlF9WIPq5Rr6wPQ5GDjI/0hqHRMCzKkXqlV0II2OpjRY/3NkkTtejGDQFYCCEYDBvdWyumImr5HRsCsFAfhj43LxV9JN3dAZYpQ9cnshP15V4wFDlIPtoHhoYNfV5UTI5aPBCGpCuG14kO8w5FSA214LzWMDM0aGbofFcUU0AtvbwSZoYGzQztr6sTfahnu2YMhm0/VswGVT0QheBmjoqP9kFAHvvMED3eXjc5w67fKTqsugANp4BackkrBORrAf1eTQO1ckRbBEO+AX1e8Yp6p3fWYDhltpgJ1d1aBStuMGrJ9T1gyDMMqXOgcteXefR8TkxM1MMdYKl5rDMMTQw4ZZGYgqe6IqCJAScvEJ0mrNcMtB5ZJ2aAemldGIoZjNS0Qa1haNzQ+QlRDvMOgyE5DPf5oDdCOqgv+yOgqYYeo/yo6f0R0FRDz5fcPtksczD0+k8Woj7fHQFFjBip5f/aEWbIa/PJih4Tt0B5SLwMZywRHb7aIT3Xl8OaBMPFq0Qfine2hjUJCMNqRZ/PtskeDHt9oZg2atFZCChWkLko1bx8fBuYIb+j5ogej3aEIXFD/28UHWYfBUsF9f3eMCRx4A9+cw5AQNMNB833mrZrMwBg4CIxXdSqG1vBihaSOG/MKZ1gAXkb7MJaD2n0Ccd6HnXZLNGh+rep+U+nhPp9pOg1qicsgYDNJ/lQX+/RHBg6/E1kyv7bGwHFi7mjh+3aBghooqH8NkV5xlrfHJU8VTc8HdTKS5GoofNzogulq2BI0LD2f1cHMKz/umKaoibvjIAixfJxNx2ySXsAZmha16edskzdkpZZ+8GSqbwjymneiQjJVP5jtQDDgV8rpidq7qkoHDc/NZ8/9ocd2wIWkMDm74o+9PW6vxzp+Hh9hCSAsstrRZ8p2yQDw8jVA1B+fo2YFqrm6jawooUkzn7hTxtXwKxpu37mlWHqsUpYKp7qAkvE8JuVPlGvd4ElEnARxdWBodMDaXq6JwzFC5ISp93xqzJYEwL2n9mMPdc5FeJ1FQkFnLbch3qoMrFza1cPMGz9kWI6qPE7IKCIISlGUd9evA6sKccubcae75IGKg5FQELHLnWhaq9rlZBh4NLVBAzHz1VMAzXnRBSUmyeJMYpj9zOzfAwDVqz2Vg5I7pglTsuHIrEzqlcfrUasEv2oVVdWwIofkkjNONNgef125Wpv3lHJHTLfafFZMCQ0YLUBQ/fnFNPwRFcYiiJi1IKLKmGNIZy3arX3/YHJHTzPadFJPwMQsNtnohf1zrYwFEmkqGVDAiyPC2pXe9P3zsyCoxBWfwAGLRB9qNqLYCgsj1CMzGQ6RM0bgDzDhatWe1/ukZn5B/8sMLS/LYouot7ZFFZYulqkskjGSPopavJOsIYM59as9qbslJkf9/6Z0PtpuVP3dIAVlK7JSoOMdBP1UGdYI4NXOjFmN6fnUjJ5R1hG5v4sMFSOrBH9lg8NhaVdhpyTyQuufeC1LxZKYgqqf42GDWescMpy1KiuLaLTF4hyj/r2YFghKbvlbfscPOKN5Yp0UtSYXrB6Accs8amd/tH4zH408caOLR/DHlMVlcKoNzeBFZAsqwBg6Hz6eJFOVPVZjR0w04Oa97u1+/XNbrcy1G/JGPqOFpVK6u6OsMJRds0sBMP699eIPqKe7AIDYNh5qs+SMxGQ+RaMod2tZGqWDYVZwa9BC2h/Q63oNW23RjZ520dXoixk11pAf1gqKqVR0w9AKA4AAZ2f9ltxEeobuj2jmJyoxzvD4G0G55aLYa8vFJXaqNc3RCgSIGDXT0UXUU+3h9Urv0V0+XQ7BLf6ZhYaNGs5GTZ+XVHpJeNdVbAigaFseK3oNHHbegD+tFL0WPo7mFdFj06GvC2UhRDMzFo4hg53iUoztfhPBisOwLDDp27zj0YAYDhopoeo5zrBXAz7vvb+y8/+7apzjt9/uw37dO9Qgaa3VFA2dEnKRH19QBGh6m632rMb6fe+osu8k30M7e4TJalu5bLqGVPG/ufeay/9wymH7LJxz3ZmLZzDv1dUyqNeWw9WHIDhrGWih8SbWsHqVf1DYnKi3twAweX0ecrFSOVfu+DbqR+8fe/GsJaLYdsPFJV2kn9rBysW7DzViXq8cz0YBtc6xZvawhIL2HKcKEmsHxumJEVNXR+hxWLo8pio9FNLzjYUC3qMVnR6pVcjO3yi6CBq4dkBIRkL6PGwqATJGGO8tz2spWJodfmKTIiatjesSNDqbrfxGyA00OERH1HzL2iPEBIIAT3ujUqaWjYIhpbL8XNEZTLqlfUQigNlw2tFn883aQCGM5eIHqJWPbgZYCFYHhaCAbv8Nycm98lOCC2VgB0mKCqj5J3tYUUAAAMXeX2/XWN9P1R0EalPL+0LA6ysYQOA9a/4RqSSe6g9rIViWPt5kZnRkrOtKGA4fp7XrD0bq7gyii4iFSffeFDPVmjU2q2z/82f5kQqaWrJ72FomRja/DWSSp70UdS0fWBFgQNmes07ElYPhq0mKfqIpLR08iMjzh1w3NEnDzj3uv9+vlQilXzUuI1bMAMWinKlj6gX+8EKfwE7fqPos/CURoBwVU70kRip+lyxrFYNRyp5Kndd65aKof9nopKnln9T5yTV3dYOVtixkEIzczJs+YVX9cDGDFtP8ZNExkhKYoyRpDypL/rD0CIx9BsjyjHqoX0/EH2ohb8v9KTVzGmTCV7Lz0eeNnS56FefDcub0o2tWyiGyptFOVL/3wbHzxJdFPXVnrCCTo+tt0phnzLAfNZ/R/SpuSIPQ68xaUkr9ckuMLRMys6udqFmnQCrGF4juijqpX6wQs7Q776a5v7Vx4+d1AHm0muUV91IawyGI2aJzQdVc74hzxaF4cDpikqeqh1RAUOPZ7yo3I1tYQWckaLSWPtIX5jH2v/2EXVHyAOoGFYjNiOj14G1SAybvKEox6hRPWAw7DBB0UXUooEo5I5QLhf9c9I9nWEO3R53u7cM1pih60Mim4mo7w+AoSViWOsBUY5Rk3aDATAMWKjoIuqz/giFm6tFKoVRC0506XSffKmHy/OBYYuxis0DVXdRQN4tB0O4YKkLtWAgDA20uz6SLooa1QdW4BJ1bztYclV3SvSIerYiLxj2mKDIZoDkg11gLZQjvxPlkbulXUMw9Buj6EPFm9rBClxRH/RCcLjN7X9V+cFw4OeKzUDU6D4wtEQCthyvKEfq5fVhaNiw1zTRRdTCs1CwTdHkjT3a3+L2QqcmwHDY54qZixq/IwwtEUOPJ0Q5UtMPhCHPsnOWiC6iPvkVQqFr6qYerUa4vdilSYZ9JyoyU4yauDcCWiKGiuGrXKjl55YZ8jRU/UOki6jn+8IKeX9xot7s3RTAsOdYkhki9c7uMLRQTponKnlG3d8BecGw0Vi51V3XBlbEeGvdBAL6PVijyKyQfH5TGFokhh2mKsox6v0tEJC/4ahZoouon84oarzdt2mAoeMlP4pkFhi15JaeCGiRGHo/I8qRmn00DE0qv2Sl6KKoyf0RihcfbZYEzGzvF2sUI9PGSE05vQ0MLRJD5bV18qRqh5Ubmmzo+i8vUf9dB1awu9pt/BaJwAydz54qMTJNjFT1vZvBDC2VXy8UfZ7ujgQQsO0ERSfWXdsKVqBrd2tGADP0u+prUZFMB2OU6l45pAJmaJkY9vpMUY5RU3aCIUnDKXNEF1HzTy/YVd2WGZghbHXl5Cgxkl6MUdLyNwd1gxkS/vlnWP8FRTlS8wbAkFCbkTnRRdSknWHFFsAMYf0/jvpJFGMkkyJjlKQfHjumM2CGFoqh6o4oOpC5m1olBUOffyv6iHp2HVihZYRiZBpzmuLS/lYx0jHqIw/AAHTc76q359dJEhkjmxhJUlJu1qjzdmwLmCH5n33AH6tFeejFvghIOmDPLxS96q5pBSuwjBSVyqhPN/Po8HeJcqQmbOkCMwOsy+4XPPLBj1EJx9nvPnzeDlUAzOB52k/KxeRzmrhDcgf9qFxMPqc5DmcsZC4mn9O0/nnRM9YLOGCacnSM+nIfGBxtcLUiXaPmnlxwuWzRvPmpnFv9zsYea92xcN58z3mLXtvUB4AFAAi9+p/2l0fe+HLOgsXLa2pra2trli1ZMGfa2w9eftruawOABYPvwKWikqem7YKQ1OGLRCVPLdw/qYBBNaKSp2bslcdt0TXHRzoBG48V5Ugt+T1cDR3+IVGu1IQdYYWVHttsndJtNmoFx7I+Wztvs1Eb+JuFgPqtOnZff6cDjh0waNCgwWced8guG/ZcqwL1QzC47/v0i6PHJD/6pb9vBEvGsOO/Xhw9JvnRLz2xNSwZw77PvDh6TPKjX3pwq8aq/inKkXq6Mzrdvti1enH1nZ1gHjBsMGZF9WLf6mX394AVVH5uWghI1sqCIZWhwrnckHiocC43JF9W4VyGRst3GnCG64D+rbFW/wP2dz1gr64weK9/4P7O++2/V1cUVi2k1nwseFtq6ptZaKKZYfXvsZo1/JI9lDkHwIK7wd9CCn+5VPJ/yf8l/5f8X/J/yf8l/5f8X/J/yf8l/5f8X/J/yf8l/5f8X/J/yf8l/5f8X/J/yf8l/5f8X/J/yf8l/5f8v2YnAFZQOCB6CgAAcGgAnQEqIAOjAS45KJRKISOjo4OAOEtLdtvJ0/vO69m1FqLHPCs/yvNN4eyre9d/U7sj0pciZSruF4p/RS9Ztgfob/Acah8K/vHbP4w3+W/46XAfyHoyf23jW/R8jQfUTOslZ9nnuEFQGxvs89wgqA2N9nnuEFQGxvs89wgqA2N9nnuEFQGxvs89wgqA3JJHCj0rg3luhpI4UelcG8t0NJHCj0rg3luhpI4UelcG8t0NJHCj0rg3luhpI4UelcG8t0NJHCj0rg3luhpI4UelcG8t0NJHCj0rg3luhpI4UelcG8t0NJHCj0rg3luhpI4UelcG8t0NJHCj0rg3luhpI4UelcG8t0NJHCj0rg3luhpI4UelcG8t0NJHCj0rg3luhpI4UelcG8t0NJHCj0rg3luhpI4UelcG8t0NJHCj0rg3luhpI4UefZ5/tfH9woaSOFHpPC0q78G8t0NJHCj0rg3iXP9rmrdy3Q0kcKPPyQSarHCj0rg3luhpI6w++t5s3UI+TsCVWhr4+abW/eMa/Nb94r4/uFDSRwo9K4LiupBzUMOK7TViaDozaUglLMLuISISRoEqL5OBHLd+g8xI4UelcG8rpctog9JYJaRHMuxO90BAvY4fkQ4pIIuCO3h8XBvLdDSRwo6sWerRDjF6A1R9nqX73OQ8ZV/tPkQ4fzXbGK/ABMUFT0n+OISZQALj/SuDeW5lbJrcY44g2woPGzi1l6hljVW4Dku+Cq5VS0PtQTk5DyIQ0CRwo9K4N5bmj9+5lc0lupVxuTmt/alVj1GRKpxhQEhHYOz7CVyZ5vZoEjhR6Vwby3hWAGLZRr4eW3HS6VlasLZR7zxmkjhR6Vwby3Q0kcKPSuDeW6GkjhR6Vwby3Q0kcKPSuDeW6GkjhR6Vwby3Q0kcKPSuDeW6GkjhR6Vwby3Q0kcKPSuDeW6GkjhR6Vwby3Q0kcKPSuDeW6GkjhR6Vwby3Q0kcKPSuDeW6GkjhR6Vwby3Q0kcKPSuDeW6GkjhR6Vwby3Q0kcKPSuDeW6GkjhR6Vwby3Q0kcKPSuDeW6GkjhR6Vwby3Q0kcKPSuDeW6GkjhR6Vwby3Q0kcKPSuDeW6GkjhR6Vwby3Q0kcKPSuDeW5kAAD+/eyyV+ih/gH+xRxz1a2+sC8yv0UP8A/2KOOerW31gXmV+ih/gH+xRxz1a2+sC8yv0UP8A/2KOOerW31gXmV+ih/gH+xRxz1a2+sC8yv0UP8A/2KOOerW31gXmV/XOEP03i+dnGz2cpU4GfJcekVtJmoaEegkkwRG6GI0L1tSjjpVWCEfu3tarHlcy1MagjcWHDw4nrmLI/0/1tsAk/OAGH5qhHpmaSVy+PWFgvSwwSEVmjOho72iiL/kS6K36XR3Oxn0urt/fxYHyLu/vrD4LBNtXqxFCDFsIgnL+R1uE50X7vPjE5SOE7I4rYBDRUfBGNhNF1EL0ZD1MGZ18awa1b5dHjjFe9p5YviFy+4RQ1JeG1RWvd1JOoPUSw7YGhqrH2EelrSeJEZHN+qQtBd8C977b12htbFSjV2mX6rVkMEexveBNh99N430KHK32vCZskwcV63up3ST/zujTJIZNf0CCWMhJs2PUno/Q4p7Wds/Fj0xI7AVhV+NekpdrJ6JCA3IgZvyIcU/QqDy/5mH2QcM3vzRMr9+ztVSIPAVznOwUgDXcaj3iOjeOyhDxIDe79rxxwZNvuNf0SGv6X/zAUXmnJNlY6A8lRxzF5yb56IHoNfAg78o4EHflHAg77t2rL5aeUeVecY68sqg31JNW3L8RsYSK/bpmnOrsL0iurYHpaXJBznS10OlBsQDzFutq0ALcSz8J1RCw12ppWMrSsCkDFaPwcywGmSRF/WVmb+29ZVOInl7U2ytfexPaekCcF/+oqYdLGHSxp0Zf/8YlvTM2mSRF9ISk9l3btugxIfPvlPzSyaLU5b4RqPvQdi4EfyGw4zP4hxeBM7cM1gGocBIc5VsD9dz08Aioc1il2Tplzs5nVpIT54iYakOAFNvkWRip1SQmU6cVTJvybnTsjsZUQxot693ir7zs+CakLe8V0DC2h5OyB4K/Eiak+t6qgutlvUC6uaUXpA7P1yLLaqBqcD4iVDmUihqjIfwJAtiZqrwzksVITmNbmB3bKFyD6WXt5wFxfSDL2HsCxV+fZd77ApY+XLPKl4Km/PGfPs8BxIIH4tBh3N6bZX3t1JQOmfNfjJb0xNa4f0P+mDATmtbFGucRIEvUzHhHY4PvPDZ2OXuO22LPzKKPQ4Cfr8KJCG1ZBL/IoVT0vHFVSfzAo8E0Bj5P+egQSlH/rRFOHrgzZepMGK9z8XdFVFyT6aiYJXe+fD+Fjy+syoB+cFJHzOlr8iT1HX1MPMnR5F75SPtTPif3oX+o2/nh+4ZkykWroKBYf1kW6QRoe5xjvccIjkXuDj2nmCzFG+mezyvwFntHGhxDpFyq7KvLxsEcqS8aJ9f6RCx1/1LzB94Q/F64SHwGX25+S//ogU2Q4dU/ggluwJ6U908Yfo5wEawCVcgUghjhFKb7bq9xYKFKGoO+qt+xdVmHCADXSZAT2WI2+5w34uV2wKvVCu5ZsgAPRGtJsX1T6+f9+oEYWFywwaAHJ9i/Iran8zCDVGTvzlyGLi7rmVIQCSD/x3PmHuEblP9fC53zGn2YHOHQKey34G33unx27SylT5Ag1Pv7AN9OKbFOBFH+RPvsVculo+v7yziR+l8eg/0oWV2AUAE0pXG3HXdf8UXl/k3NxC3976VDVgA2FRN+41nfNEZCi+L/wKRlvSOfjYuoWdMVlhOV/xaqJSTwT0oFVwE0wrojjhdZZGoAEl4vEEaTCx/5+2wkj3lZh4frk/dSqaCJNKFpj+1hv67s7OJV4AKBA1nYPeRFvkrrVs4DYDCCMDAn/cgpNVjWRa61zDoT2Ygx0MB8iuHa7JJQxdHWWrN7Nt5+Pq7v/oZkCCd/kVxA2xT1aFp/nzS+EcjzlhpVbbnEwHlqjJ+dcRBF0UvmHaTd2z4ksWqAvfTO6kav0Ud0ljhz4TRrPS3euHVa2NBpp9w86STJbbb+EpBbl0vGiAp67mvX8RehPCnIqikKukC2/Slpd8CPVoegewKBxVq3qRD28thH7UbgftEOvPzVrQfSr9yLaD4xFLw4XyIyn89yxwNgZ8tbHsrOdqi1OROwMhliOHyTvrbfl0dzsZHdAPFdUMenJS5y3Tc3IGgZNtvLFJkpl99BWa7xliB4ize80cMrxexJxc+Oa62HoRvH5rv68BVdjFNkeGUEyVF16WXFKhgpYZVsi2LFti+N/lbuI4YUMhPpI1s0lWOEk1LfT9p597wHZoM/rsWebeMzISx29Mr2lqsBQaCeyqyp7ef1sBRqfrUAUpnBnnaMk7B0HoIpqYueQrHWqRUkJU93QFTZaHDIUpmTvjPjQmMpnlR9VJ/rFyuXVRy4BBBffnqjUq0J1xORehEYjV193w5Nvm19qeopLdzKoPAQ+tJD5J4F3KrDGogyyzvcAsmeuT7ItkP9b6JBdjN7KRXm5X1zEjxWeMiy8sVFtrw1ACT+JdMwqj6AAAA;" vertex="1" parent="1">
          <mxGeometry x="390" y="370" width="114.71" height="60.08" as="geometry" />
        </mxCell>
        <mxCell id="WbmOMX9Wb3A79K1njuYa-10" value="フロントエンドのレンダリング&lt;div&gt;状態管理&lt;/div&gt;" style="text;html=1;align=left;verticalAlign=middle;whiteSpace=wrap;rounded=0;fontSize=8;" vertex="1" parent="1">
          <mxGeometry x="420" y="410" width="120" height="30" as="geometry" />
        </mxCell>
        <mxCell id="WbmOMX9Wb3A79K1njuYa-43" style="edgeStyle=orthogonalEdgeStyle;rounded=0;orthogonalLoop=1;jettySize=auto;html=1;entryX=1;entryY=0.5;entryDx=0;entryDy=0;" edge="1" parent="1" source="WbmOMX9Wb3A79K1njuYa-12" target="WbmOMX9Wb3A79K1njuYa-38">
          <mxGeometry relative="1" as="geometry" />
        </mxCell>
        <mxCell id="WbmOMX9Wb3A79K1njuYa-14" value="NodeJSのエッジランタイムラインタイム" style="text;html=1;align=center;verticalAlign=middle;whiteSpace=wrap;rounded=0;" vertex="1" parent="1">
          <mxGeometry x="473.72" y="250" width="260" height="30" as="geometry" />
        </mxCell>
        <mxCell id="WbmOMX9Wb3A79K1njuYa-18" value="" style="shape=image;verticalLabelPosition=bottom;labelBackgroundColor=default;verticalAlign=top;aspect=fixed;imageAspect=0;image=https://cn.teldevice.co.jp/_cms/wp-content/uploads/2022/08/Cloudflare.png;" vertex="1" parent="1">
          <mxGeometry x="610" y="30" width="120" height="90" as="geometry" />
        </mxCell>
        <mxCell id="WbmOMX9Wb3A79K1njuYa-23" value="" style="sketch=0;pointerEvents=1;shadow=0;dashed=0;html=1;strokeColor=none;fillColor=#434445;aspect=fixed;labelPosition=center;verticalLabelPosition=bottom;verticalAlign=top;align=center;outlineConnect=0;shape=mxgraph.vvd.storage;" vertex="1" parent="1">
          <mxGeometry x="30" y="280.62" width="37.5" height="50" as="geometry" />
        </mxCell>
        <mxCell id="WbmOMX9Wb3A79K1njuYa-25" value="" style="shape=image;verticalLabelPosition=bottom;labelBackgroundColor=default;verticalAlign=top;aspect=fixed;imageAspect=0;image=https://upload.wikimedia.org/wikipedia/commons/thumb/2/29/Postgresql_elephant.svg/800px-Postgresql_elephant.svg.png;" vertex="1" parent="1">
          <mxGeometry x="80.6" y="309.69" width="39.4" height="40.62" as="geometry" />
        </mxCell>
        <mxCell id="WbmOMX9Wb3A79K1njuYa-41" value="" style="shape=image;verticalLabelPosition=bottom;labelBackgroundColor=default;verticalAlign=top;aspect=fixed;imageAspect=0;image=https://i.gzn.jp/img/2020/12/22/cloudflare-pages/00.png;" vertex="1" parent="1">
          <mxGeometry x="532.83" y="280" width="178.02" height="100" as="geometry" />
        </mxCell>
        <mxCell id="WbmOMX9Wb3A79K1njuYa-32" style="edgeStyle=orthogonalEdgeStyle;rounded=0;orthogonalLoop=1;jettySize=auto;html=1;" edge="1" parent="1" source="WbmOMX9Wb3A79K1njuYa-8" target="WbmOMX9Wb3A79K1njuYa-29">
          <mxGeometry relative="1" as="geometry" />
        </mxCell>
        <mxCell id="WbmOMX9Wb3A79K1njuYa-33" value="" style="fontColor=#0066CC;verticalAlign=top;verticalLabelPosition=bottom;labelPosition=center;align=center;html=1;outlineConnect=0;fillColor=#CCCCCC;strokeColor=#6881B3;gradientColor=none;gradientDirection=north;strokeWidth=2;shape=mxgraph.networks.laptop;" vertex="1" parent="1">
          <mxGeometry x="900" y="302.5" width="100" height="55" as="geometry" />
        </mxCell>
        <mxCell id="WbmOMX9Wb3A79K1njuYa-35" style="edgeStyle=orthogonalEdgeStyle;rounded=0;orthogonalLoop=1;jettySize=auto;html=1;entryX=1;entryY=0.5;entryDx=0;entryDy=0;" edge="1" parent="1" source="WbmOMX9Wb3A79K1njuYa-33" target="WbmOMX9Wb3A79K1njuYa-41">
          <mxGeometry relative="1" as="geometry" />
        </mxCell>
        <mxCell id="WbmOMX9Wb3A79K1njuYa-36" value="" style="shape=image;verticalLabelPosition=bottom;labelBackgroundColor=default;verticalAlign=top;aspect=fixed;imageAspect=0;image=https://pbs.twimg.com/profile_images/1872588928492126208/NOtyx8HR_400x400.png;" vertex="1" parent="1">
          <mxGeometry x="20" y="-36.25" width="100" height="100" as="geometry" />
        </mxCell>
        <mxCell id="WbmOMX9Wb3A79K1njuYa-37" value="" style="shape=image;verticalLabelPosition=bottom;labelBackgroundColor=default;verticalAlign=top;aspect=fixed;imageAspect=0;image=https://kisopro.net/wp-content/uploads/2021/06/%E5%90%8D%E7%A7%B0%E6%9C%AA%E8%A8%AD%E5%AE%9A2.001.jpeg;" vertex="1" parent="1">
          <mxGeometry x="140" y="-33.75" width="130" height="97.5" as="geometry" />
        </mxCell>
        <mxCell id="WbmOMX9Wb3A79K1njuYa-46" value="" style="group;strokeColor=#6c8ebf;fillColor=#dae8fc;" connectable="0" vertex="1" parent="1">
          <mxGeometry x="381.89" y="120" width="150.93999999999994" height="70" as="geometry" />
        </mxCell>
        <mxCell id="WbmOMX9Wb3A79K1njuYa-12" value="" style="shape=image;verticalLabelPosition=bottom;labelBackgroundColor=default;verticalAlign=top;aspect=fixed;imageAspect=0;image=https://cf-assets.www.cloudflare.com/zkvhlag99gkb/msyMXSSf3hlUnawe68PDG/d0edfa4f2703a94018c7ab65d9808616/45DEDC7B-B31F-461C-B786-12FBAF1A5391.png;" vertex="1" parent="WbmOMX9Wb3A79K1njuYa-46">
          <mxGeometry y="30" width="150.94" height="40" as="geometry" />
        </mxCell>
        <mxCell id="WbmOMX9Wb3A79K1njuYa-40" value="CRON JOBS" style="text;html=1;align=center;verticalAlign=middle;whiteSpace=wrap;rounded=0;" vertex="1" parent="WbmOMX9Wb3A79K1njuYa-46">
          <mxGeometry x="5.460000000000036" width="120" height="30" as="geometry" />
        </mxCell>
        <mxCell id="WbmOMX9Wb3A79K1njuYa-47" value="private" style="text;html=1;align=center;verticalAlign=middle;whiteSpace=wrap;rounded=0;" vertex="1" parent="1">
          <mxGeometry x="526" y="100" width="60" height="30" as="geometry" />
        </mxCell>
        <mxCell id="WbmOMX9Wb3A79K1njuYa-48" value="public" style="text;html=1;align=center;verticalAlign=middle;whiteSpace=wrap;rounded=0;" vertex="1" parent="1">
          <mxGeometry x="550" y="220" width="60" height="30" as="geometry" />
        </mxCell>
        <mxCell id="WbmOMX9Wb3A79K1njuYa-54" style="edgeStyle=orthogonalEdgeStyle;rounded=0;orthogonalLoop=1;jettySize=auto;html=1;" edge="1" parent="1" source="WbmOMX9Wb3A79K1njuYa-12" target="WbmOMX9Wb3A79K1njuYa-29">
          <mxGeometry relative="1" as="geometry" />
        </mxCell>
        <mxCell id="_3c9dNrc7TmSXEJGuCsK-1" value="サーバー" style="text;html=1;align=center;verticalAlign=middle;whiteSpace=wrap;rounded=0;" vertex="1" parent="1">
          <mxGeometry x="360" y="440" width="60" height="30" as="geometry" />
        </mxCell>
        <mxCell id="_3c9dNrc7TmSXEJGuCsK-3" value="" style="shape=image;verticalLabelPosition=bottom;labelBackgroundColor=default;verticalAlign=top;aspect=fixed;imageAspect=0;image=https://oji-cloud.net/wp-content/uploads/2023/05/githubaction.png;" vertex="1" parent="1">
          <mxGeometry x="300" y="570" width="70" height="70" as="geometry" />
        </mxCell>
        <mxCell id="_3c9dNrc7TmSXEJGuCsK-4" value="" style="shape=image;verticalLabelPosition=bottom;labelBackgroundColor=default;verticalAlign=top;aspect=fixed;imageAspect=0;image=https://cdn.amebaowndme.com/madrid-prd/madrid-web/images/sites/179/40b6b630e16af39ebe3eecb8f8193a13_8f13c10de11884143fced78a7b1206f6.png;" vertex="1" parent="1">
          <mxGeometry x="210" y="532.93" width="100" height="37.07" as="geometry" />
        </mxCell>
        <mxCell id="_3c9dNrc7TmSXEJGuCsK-7" style="edgeStyle=orthogonalEdgeStyle;rounded=0;orthogonalLoop=1;jettySize=auto;html=1;entryX=0;entryY=0.5;entryDx=0;entryDy=0;" edge="1" parent="1" source="_3c9dNrc7TmSXEJGuCsK-6" target="_3c9dNrc7TmSXEJGuCsK-3">
          <mxGeometry relative="1" as="geometry" />
        </mxCell>
        <mxCell id="_3c9dNrc7TmSXEJGuCsK-6" value="" style="fontColor=#0066CC;verticalAlign=top;verticalLabelPosition=bottom;labelPosition=center;align=center;html=1;outlineConnect=0;fillColor=#CCCCCC;strokeColor=#6881B3;gradientColor=none;gradientDirection=north;strokeWidth=2;shape=mxgraph.networks.laptop;" vertex="1" parent="1">
          <mxGeometry x="110" y="577.5" width="100" height="55" as="geometry" />
        </mxCell>
        <mxCell id="_3c9dNrc7TmSXEJGuCsK-8" style="edgeStyle=orthogonalEdgeStyle;rounded=0;orthogonalLoop=1;jettySize=auto;html=1;entryX=0.473;entryY=1.003;entryDx=0;entryDy=0;entryPerimeter=0;" edge="1" parent="1" source="_3c9dNrc7TmSXEJGuCsK-3" target="WbmOMX9Wb3A79K1njuYa-11">
          <mxGeometry relative="1" as="geometry" />
        </mxCell>
        <mxCell id="_3c9dNrc7TmSXEJGuCsK-9" value="デプロイ" style="text;html=1;align=center;verticalAlign=middle;whiteSpace=wrap;rounded=0;" vertex="1" parent="1">
          <mxGeometry x="381.89" y="520" width="60" height="30" as="geometry" />
        </mxCell>
        <mxCell id="_3c9dNrc7TmSXEJGuCsK-10" value="開発者" style="text;html=1;align=center;verticalAlign=middle;whiteSpace=wrap;rounded=0;" vertex="1" parent="1">
          <mxGeometry x="130" y="577.5" width="60" height="30" as="geometry" />
        </mxCell>
      </root>
    </mxGraphModel>
  </diagram>
</mxfile>
